<mxfile host="65bd71144e">
    <diagram name="Page-1" id="jGaZTTVf_2apKbHke8Xw">
        <mxGraphModel dx="1248" dy="760" grid="1" gridSize="10" guides="1" tooltips="1" connect="1" arrows="1" fold="1" page="1" pageScale="1" pageWidth="850" pageHeight="1100" math="0" shadow="0">
            <root>
                <mxCell id="0"/>
                <mxCell id="1" parent="0"/>
                <mxCell id="RfV0M6_RHMmGJTSNv55L-26" value="業務プロセス構築&lt;div&gt;サイゾーの仕様調査&lt;/div&gt;&lt;div&gt;コーポレートサイト構築&lt;/div&gt;&lt;div&gt;LP作成&lt;/div&gt;" style="rounded=0;whiteSpace=wrap;html=1;" parent="1" vertex="1">
                    <mxGeometry x="120" y="410" width="200" height="80" as="geometry"/>
                </mxCell>
                <mxCell id="RfV0M6_RHMmGJTSNv55L-1" value="" style="endArrow=none;html=1;rounded=0;" parent="1" edge="1">
                    <mxGeometry width="50" height="50" relative="1" as="geometry">
                        <mxPoint x="120" y="710" as="sourcePoint"/>
                        <mxPoint x="120" y="340" as="targetPoint"/>
                    </mxGeometry>
                </mxCell>
                <mxCell id="RfV0M6_RHMmGJTSNv55L-2" value="2025" style="text;html=1;align=center;verticalAlign=middle;whiteSpace=wrap;rounded=0;" parent="1" vertex="1">
                    <mxGeometry x="90" y="280" width="60" height="30" as="geometry"/>
                </mxCell>
                <mxCell id="RfV0M6_RHMmGJTSNv55L-3" value="2026" style="text;html=1;align=center;verticalAlign=middle;whiteSpace=wrap;rounded=0;" parent="1" vertex="1">
                    <mxGeometry x="210" y="280" width="60" height="30" as="geometry"/>
                </mxCell>
                <mxCell id="RfV0M6_RHMmGJTSNv55L-4" value="10" style="text;html=1;align=center;verticalAlign=middle;whiteSpace=wrap;rounded=0;" parent="1" vertex="1">
                    <mxGeometry x="90" y="310" width="60" height="30" as="geometry"/>
                </mxCell>
                <mxCell id="RfV0M6_RHMmGJTSNv55L-5" value="11" style="text;html=1;align=center;verticalAlign=middle;whiteSpace=wrap;rounded=0;" parent="1" vertex="1">
                    <mxGeometry x="130" y="310" width="60" height="30" as="geometry"/>
                </mxCell>
                <mxCell id="RfV0M6_RHMmGJTSNv55L-6" value="12" style="text;html=1;align=center;verticalAlign=middle;whiteSpace=wrap;rounded=0;" parent="1" vertex="1">
                    <mxGeometry x="170" y="310" width="60" height="30" as="geometry"/>
                </mxCell>
                <mxCell id="RfV0M6_RHMmGJTSNv55L-7" value="1" style="text;html=1;align=center;verticalAlign=middle;whiteSpace=wrap;rounded=0;" parent="1" vertex="1">
                    <mxGeometry x="210" y="310" width="60" height="30" as="geometry"/>
                </mxCell>
                <mxCell id="RfV0M6_RHMmGJTSNv55L-8" value="2" style="text;html=1;align=center;verticalAlign=middle;whiteSpace=wrap;rounded=0;" parent="1" vertex="1">
                    <mxGeometry x="250" y="310" width="60" height="30" as="geometry"/>
                </mxCell>
                <mxCell id="RfV0M6_RHMmGJTSNv55L-9" value="5" style="text;html=1;align=center;verticalAlign=middle;whiteSpace=wrap;rounded=0;" parent="1" vertex="1">
                    <mxGeometry x="370" y="310" width="60" height="30" as="geometry"/>
                </mxCell>
                <mxCell id="RfV0M6_RHMmGJTSNv55L-10" value="4" style="text;html=1;align=center;verticalAlign=middle;whiteSpace=wrap;rounded=0;" parent="1" vertex="1">
                    <mxGeometry x="330" y="310" width="60" height="30" as="geometry"/>
                </mxCell>
                <mxCell id="RfV0M6_RHMmGJTSNv55L-11" value="3" style="text;html=1;align=center;verticalAlign=middle;whiteSpace=wrap;rounded=0;" parent="1" vertex="1">
                    <mxGeometry x="290" y="310" width="60" height="30" as="geometry"/>
                </mxCell>
                <mxCell id="RfV0M6_RHMmGJTSNv55L-12" value="6" style="text;html=1;align=center;verticalAlign=middle;whiteSpace=wrap;rounded=0;" parent="1" vertex="1">
                    <mxGeometry x="410" y="310" width="60" height="30" as="geometry"/>
                </mxCell>
                <mxCell id="RfV0M6_RHMmGJTSNv55L-13" value="8" style="text;html=1;align=center;verticalAlign=middle;whiteSpace=wrap;rounded=0;" parent="1" vertex="1">
                    <mxGeometry x="490" y="310" width="60" height="30" as="geometry"/>
                </mxCell>
                <mxCell id="RfV0M6_RHMmGJTSNv55L-14" value="9" style="text;html=1;align=center;verticalAlign=middle;whiteSpace=wrap;rounded=0;" parent="1" vertex="1">
                    <mxGeometry x="530" y="310" width="60" height="30" as="geometry"/>
                </mxCell>
                <mxCell id="RfV0M6_RHMmGJTSNv55L-15" value="10" style="text;html=1;align=center;verticalAlign=middle;whiteSpace=wrap;rounded=0;" parent="1" vertex="1">
                    <mxGeometry x="570" y="310" width="60" height="30" as="geometry"/>
                </mxCell>
                <mxCell id="RfV0M6_RHMmGJTSNv55L-16" value="11" style="text;html=1;align=center;verticalAlign=middle;whiteSpace=wrap;rounded=0;" parent="1" vertex="1">
                    <mxGeometry x="610" y="310" width="60" height="30" as="geometry"/>
                </mxCell>
                <mxCell id="RfV0M6_RHMmGJTSNv55L-17" value="12" style="text;html=1;align=center;verticalAlign=middle;whiteSpace=wrap;rounded=0;" parent="1" vertex="1">
                    <mxGeometry x="650" y="310" width="60" height="30" as="geometry"/>
                </mxCell>
                <mxCell id="RfV0M6_RHMmGJTSNv55L-18" value="7" style="text;html=1;align=center;verticalAlign=middle;whiteSpace=wrap;rounded=0;" parent="1" vertex="1">
                    <mxGeometry x="450" y="310" width="60" height="30" as="geometry"/>
                </mxCell>
                <mxCell id="RfV0M6_RHMmGJTSNv55L-19" value="現職" style="rounded=0;whiteSpace=wrap;html=1;" parent="1" vertex="1">
                    <mxGeometry x="120" y="370" width="280" height="20" as="geometry"/>
                </mxCell>
                <mxCell id="RfV0M6_RHMmGJTSNv55L-20" value="" style="verticalLabelPosition=bottom;verticalAlign=top;html=1;shape=mxgraph.basic.8_point_star;fillColor=none;" parent="1" vertex="1">
                    <mxGeometry x="380" y="345" width="80" height="70" as="geometry"/>
                </mxCell>
                <mxCell id="RfV0M6_RHMmGJTSNv55L-21" value="退社" style="text;html=1;align=center;verticalAlign=middle;whiteSpace=wrap;rounded=0;" parent="1" vertex="1">
                    <mxGeometry x="390" y="365" width="60" height="30" as="geometry"/>
                </mxCell>
                <mxCell id="RfV0M6_RHMmGJTSNv55L-24" value="司法書士会登録＆法人設立手続き" style="rounded=0;whiteSpace=wrap;html=1;" parent="1" vertex="1">
                    <mxGeometry x="240" y="510" width="80" height="50" as="geometry"/>
                </mxCell>
                <mxCell id="RfV0M6_RHMmGJTSNv55L-30" value="現職と並行&lt;div&gt;月1~2件&lt;/div&gt;" style="rounded=0;whiteSpace=wrap;html=1;" parent="1" vertex="1">
                    <mxGeometry x="320" y="580" width="80" height="50" as="geometry"/>
                </mxCell>
                <mxCell id="RfV0M6_RHMmGJTSNv55L-31" value="退社後&lt;div&gt;日1件, 月20件&lt;/div&gt;" style="rounded=0;whiteSpace=wrap;html=1;" parent="1" vertex="1">
                    <mxGeometry x="400" y="580" width="120" height="50" as="geometry"/>
                </mxCell>
                <mxCell id="RfV0M6_RHMmGJTSNv55L-32" value="佐々木さん合流！？&lt;div&gt;日2件,月40件&lt;/div&gt;" style="rounded=0;whiteSpace=wrap;html=1;" parent="1" vertex="1">
                    <mxGeometry x="520" y="580" width="120" height="50" as="geometry"/>
                </mxCell>
                <mxCell id="RfV0M6_RHMmGJTSNv55L-39" value="" style="shape=flexArrow;endArrow=classic;html=1;rounded=0;width=36.388888888888886;endSize=6.908333333333333;" parent="1" edge="1">
                    <mxGeometry width="50" height="50" relative="1" as="geometry">
                        <mxPoint x="320" y="530" as="sourcePoint"/>
                        <mxPoint x="460" y="530.14" as="targetPoint"/>
                    </mxGeometry>
                </mxCell>
                <mxCell id="RfV0M6_RHMmGJTSNv55L-40" value="業務開始" style="edgeLabel;html=1;align=center;verticalAlign=middle;resizable=0;points=[];" parent="RfV0M6_RHMmGJTSNv55L-39" vertex="1" connectable="0">
                    <mxGeometry x="0.0888" y="6" relative="1" as="geometry">
                        <mxPoint x="-16" y="6" as="offset"/>
                    </mxGeometry>
                </mxCell>
                <mxCell id="RfV0M6_RHMmGJTSNv55L-46" value="登録手続き2ヶ月くらいかかりそう" style="text;html=1;align=center;verticalAlign=middle;resizable=0;points=[];autosize=1;strokeColor=none;fillColor=none;" parent="1" vertex="1">
                    <mxGeometry x="40" y="570" width="210" height="30" as="geometry"/>
                </mxCell>
                <mxCell id="RfV0M6_RHMmGJTSNv55L-47" style="edgeStyle=orthogonalEdgeStyle;rounded=0;orthogonalLoop=1;jettySize=auto;html=1;entryX=0.001;entryY=0.409;entryDx=0;entryDy=0;entryPerimeter=0;fillColor=#f8cecc;strokeColor=#b85450;" parent="1" source="RfV0M6_RHMmGJTSNv55L-46" target="RfV0M6_RHMmGJTSNv55L-24" edge="1">
                    <mxGeometry relative="1" as="geometry"/>
                </mxCell>
                <mxCell id="RfV0M6_RHMmGJTSNv55L-53" style="edgeStyle=orthogonalEdgeStyle;rounded=0;orthogonalLoop=1;jettySize=auto;html=1;entryX=1;entryY=0.5;entryDx=0;entryDy=0;" parent="1" source="RfV0M6_RHMmGJTSNv55L-51" target="RfV0M6_RHMmGJTSNv55L-26" edge="1">
                    <mxGeometry relative="1" as="geometry"/>
                </mxCell>
                <mxCell id="RfV0M6_RHMmGJTSNv55L-51" value="とりあえずサイゾーの仕様が知りたい&lt;div&gt;普通にサイゾーのサイトから問い合わせしてみる&lt;/div&gt;&lt;div&gt;コーポレートサイト/LP、予約の導線は中内さん、、、&lt;/div&gt;&lt;div&gt;にお願いしたいなぁ&lt;/div&gt;" style="text;html=1;align=center;verticalAlign=middle;resizable=0;points=[];autosize=1;strokeColor=none;fillColor=none;" parent="1" vertex="1">
                    <mxGeometry x="490" y="415" width="300" height="70" as="geometry"/>
                </mxCell>
            </root>
        </mxGraphModel>
    </diagram>
</mxfile>